<svg xmlns="http://www.w3.org/2000/svg" width="32" height="32" viewBox="0 0 32 32">
  <!-- 渐变定义 -->
  <defs>
    <linearGradient id="skyGradient" x1="0%" y1="0%" x2="100%" y2="100%">
      <stop offset="0%" style="stop-color:#667eea;stop-opacity:1" />
      <stop offset="100%" style="stop-color:#764ba2;stop-opacity:1" />
    </linearGradient>
    <radialGradient id="sunGradient" cx="50%" cy="50%" r="50%">
      <stop offset="0%" style="stop-color:#FFE082;stop-opacity:1" />
      <stop offset="100%" style="stop-color:#FF8F00;stop-opacity:1" />
    </radialGradient>
    <linearGradient id="cloudGradient" x1="0%" y1="0%" x2="100%" y2="100%">
      <stop offset="0%" style="stop-color:#ffffff;stop-opacity:0.95" />
      <stop offset="100%" style="stop-color:#f5f5f5;stop-opacity:0.8" />
    </linearGradient>
    <filter id="shadow" x="-50%" y="-50%" width="200%" height="200%">
      <feDropShadow dx="1" dy="1" stdDeviation="1" flood-color="#000000" flood-opacity="0.2"/>
    </filter>
  </defs>
  
  <!-- 主背景 -->
  <rect width="32" height="32" rx="8" fill="url(#skyGradient)" filter="url(#shadow)"/>
  
  <!-- 太阳光芒 -->
  <g transform="translate(16,16)">
    <g opacity="0.6">
      <line x1="0" y1="-12" x2="0" y2="-9" stroke="#FFE082" stroke-width="1.5" stroke-linecap="round"/>
      <line x1="8.5" y1="-8.5" x2="6.4" y2="-6.4" stroke="#FFE082" stroke-width="1.5" stroke-linecap="round"/>
      <line x1="12" y1="0" x2="9" y2="0" stroke="#FFE082" stroke-width="1.5" stroke-linecap="round"/>
      <line x1="8.5" y1="8.5" x2="6.4" y2="6.4" stroke="#FFE082" stroke-width="1.5" stroke-linecap="round"/>
      <line x1="0" y1="12" x2="0" y2="9" stroke="#FFE082" stroke-width="1.5" stroke-linecap="round"/>
      <line x1="-8.5" y1="8.5" x2="-6.4" y2="6.4" stroke="#FFE082" stroke-width="1.5" stroke-linecap="round"/>
      <line x1="-12" y1="0" x2="-9" y2="0" stroke="#FFE082" stroke-width="1.5" stroke-linecap="round"/>
      <line x1="-8.5" y1="-8.5" x2="-6.4" y2="-6.4" stroke="#FFE082" stroke-width="1.5" stroke-linecap="round"/>
    </g>
    
    <!-- 太阳主体 -->
    <circle cx="0" cy="0" r="5" fill="url(#sunGradient)" filter="url(#shadow)"/>
  </g>
  
  <!-- 精致云朵 -->
  <path d="M6 22 C6 20 8 18 11 18 C12 16 15 16 16 18 C19 18 21 20 21 22 C22.5 22 24 23.5 24 25 C24 26.5 22.5 28 21 28 L9 28 C7.5 28 6 26.5 6 25 C6 23.5 7.5 22 9 22 Z" 
        fill="url(#cloudGradient)" filter="url(#shadow)" opacity="0.9"/>
  
  <!-- 现代化装饰线条 -->
  <rect x="2" y="29" width="28" height="1" fill="#ffffff" opacity="0.3" rx="0.5"/>
</svg> 